<svg xmlns="http://www.w3.org/2000/svg" viewBox="0 0 1600 1000">
<defs>
  <linearGradient id="sky-shanghai-2" x1="0" y1="0" x2="0" y2="1">
    <stop stop-color="#415c70"/><stop offset="1" stop-color="#d69855"/>
  </linearGradient>
  <linearGradient id="overlay-shanghai-2" x1="0" y1="0" x2="0" y2="1">
    <stop offset=".42" stop-color="#000" stop-opacity="0"/>
    <stop offset="1" stop-color="#000" stop-opacity=".72"/>
  </linearGradient>
</defs>
<rect width="1600" height="1000" fill="url(#sky-shanghai-2)"/>
<circle cx="1260" cy="170" r="115" fill="#ffe8ad" opacity=".88"/>
<path d="M0 720 Q300 520 600 700 T1200 680 T1600 660 V1000 H0Z" fill="#28323a" opacity=".76"/><rect x="590.0" y="610" width="420" height="65" fill="#6d4530"/><polygon points="535.0,610 800,555 1065.0,610" fill="#302728"/><rect x="625.0" y="525" width="350" height="65" fill="#6d4530"/><polygon points="570.0,525 800,470 1030.0,525" fill="#302728"/><circle cx="80" cy="670" r="65" fill="#b5432e" opacity=".9"/><circle cx="220" cy="632" r="81" fill="#e6aa3a" opacity=".9"/><circle cx="380" cy="594" r="65" fill="#b5432e" opacity=".9"/><circle cx="1220" cy="670" r="81" fill="#e6aa3a" opacity=".9"/><circle cx="1390" cy="632" r="65" fill="#b5432e" opacity=".9"/><circle cx="1530" cy="594" r="81" fill="#e6aa3a" opacity=".9"/>
<rect width="1600" height="1000" fill="url(#overlay-shanghai-2)"/>
<text x="75" y="825" fill="#fff" font-family="Georgia,serif" font-size="70">Yu Garden</text>
<text x="80" y="884" fill="#ffe2aa" font-family="Arial,sans-serif" font-size="27">Classical pavilions, ponds, and stonework</text>
</svg>