<svg xmlns="http://www.w3.org/2000/svg" viewBox="0 0 1600 900">
<defs>
  <linearGradient id="bg" x1="0" y1="0" x2="0" y2="1">
    <stop stop-color="#526979"/><stop offset="1" stop-color="#d8a45f"/>
  </linearGradient>
</defs>
<rect width="1600" height="900" fill="url(#bg)"/>
<circle cx="1260" cy="180" r="120" fill="#ffe6a7" opacity=".85"/>

<path d="M0 720 L230 420 L410 650 L680 280 L930 700 L1210 360 L1600 720 V900 H0Z" fill="#3d403d" opacity=".86"/>
<path d="M0 780 L300 590 L590 760 L850 500 L1120 780 L1410 590 L1600 760 V900 H0Z" fill="#2d2726" opacity=".72"/>

<circle cx="130" cy="560" r="80" fill="#b33b2b" opacity=".92"/><circle cx="250" cy="520" r="70" fill="#e2a330" opacity=".92"/><circle cx="420" cy="590" r="90" fill="#b33b2b" opacity=".92"/><circle cx="1180" cy="560" r="85" fill="#e2a330" opacity=".92"/><circle cx="1340" cy="520" r="75" fill="#b33b2b" opacity=".92"/><circle cx="1480" cy="590" r="90" fill="#e2a330" opacity=".92"/>
<text x="90" y="120" fill="#fff" font-family="Georgia,serif" font-size="78">China in Autumn</text>
<text x="95" y="182" fill="#ffe6b2" font-family="Arial,sans-serif" font-size="28">A 10-day luxury journey through Eastern China</text>
</svg>